<svg id="Capa_1" enable-background="new 0 0 510.663 510.663" height="512" viewBox="0 0 510.663 510.663" width="512" xmlns="http://www.w3.org/2000/svg"><g><path d="m383.723 263.853h-28.673v-189.854c0-12.198-9.888-22.086-22.086-22.086h-206.135c-12.198 0-22.086 9.888-22.086 22.086v189.854 145.69c0 17.976 14.572 32.548 32.548 32.548h217.76 107.717c17.976 0 32.548-14.572 32.548-32.548v-34.098c-.001-61.631-49.962-111.592-111.593-111.592z" fill="#eaa895"/><g fill="#f9fbfc"><path d="m351.549 99.23c-1.713 0-3.102 1.389-3.102 3.103 0 1.713 1.389 3.102 3.102 3.102s3.102-1.389 3.102-3.102-1.389-3.103-3.102-3.103z"/><path d="m351.549 179.23c-1.713 0-3.102 1.389-3.102 3.103 0 1.713 1.389 3.102 3.102 3.102s3.102-1.389 3.102-3.102-1.389-3.103-3.102-3.103z"/><path d="m341.925 88.854c-1.713 0-3.102 1.389-3.102 3.102s1.389 3.102 3.102 3.102 3.102-1.389 3.102-3.102-1.388-3.102-3.102-3.102z"/><path d="m331.549 99.23c-1.713 0-3.102 1.389-3.102 3.103 0 1.713 1.389 3.102 3.102 3.102s3.102-1.389 3.102-3.102-1.389-3.103-3.102-3.103z"/><path d="m341.925 108.854c-1.713 0-3.102 1.389-3.102 3.102s1.389 3.102 3.102 3.102 3.102-1.389 3.102-3.102-1.388-3.102-3.102-3.102z"/><path d="m341.925 168.854c-1.713 0-3.102 1.389-3.102 3.102s1.389 3.102 3.102 3.102 3.102-1.389 3.102-3.102-1.388-3.102-3.102-3.102z"/><path d="m331.549 179.23c-1.713 0-3.102 1.389-3.102 3.103 0 1.713 1.389 3.102 3.102 3.102s3.102-1.389 3.102-3.102-1.389-3.103-3.102-3.103z"/><path d="m321.925 88.854c-1.713 0-3.102 1.389-3.102 3.102s1.389 3.102 3.102 3.102 3.102-1.389 3.102-3.102-1.388-3.102-3.102-3.102z"/><path d="m311.549 99.23c-1.713 0-3.102 1.389-3.102 3.103 0 1.713 1.389 3.102 3.102 3.102s3.102-1.389 3.102-3.102-1.389-3.103-3.102-3.103z"/><path d="m321.925 108.854c-1.713 0-3.102 1.389-3.102 3.102s1.389 3.102 3.102 3.102 3.102-1.389 3.102-3.102-1.388-3.102-3.102-3.102z"/><path d="m321.925 168.854c-1.713 0-3.102 1.389-3.102 3.102s1.389 3.102 3.102 3.102 3.102-1.389 3.102-3.102-1.388-3.102-3.102-3.102z"/><path d="m311.549 179.23c-1.713 0-3.102 1.389-3.102 3.103 0 1.713 1.389 3.102 3.102 3.102s3.102-1.389 3.102-3.102-1.389-3.103-3.102-3.103z"/><path d="m301.925 88.854c-1.713 0-3.102 1.389-3.102 3.102s1.389 3.102 3.102 3.102 3.102-1.389 3.102-3.102-1.388-3.102-3.102-3.102z"/><path d="m301.925 108.854c-1.713 0-3.102 1.389-3.102 3.102s1.389 3.102 3.102 3.102 3.102-1.389 3.102-3.102-1.388-3.102-3.102-3.102z"/><path d="m301.925 168.854c-1.713 0-3.102 1.389-3.102 3.102s1.389 3.102 3.102 3.102 3.102-1.389 3.102-3.102-1.388-3.102-3.102-3.102z"/></g><g fill="#f9fbfc"><path d="m491.072 355.353c-1.713 0-3.102 1.389-3.102 3.102s1.389 3.103 3.102 3.103c1.506 0 2.76-1.074 3.041-2.498-.104-.705-.225-1.404-.342-2.104-.529-.952-1.533-1.603-2.699-1.603z"/><path d="m491.072 375.353c-1.713 0-3.102 1.389-3.102 3.102s1.389 3.103 3.102 3.103 3.102-1.389 3.102-3.103c0-1.713-1.389-3.102-3.102-3.102z"/><path d="m491.072 401.558c1.713 0 3.102-1.389 3.102-3.103 0-1.713-1.389-3.102-3.102-3.102s-3.102 1.389-3.102 3.102c-.001 1.713 1.388 3.103 3.102 3.103z"/><path d="m491.072 415.353c-1.713 0-3.102 1.389-3.102 3.102s1.389 3.103 3.102 3.103c.956 0 1.801-.442 2.37-1.122.262-.738.496-1.49.705-2.251-.14-1.585-1.455-2.832-3.075-2.832z"/><path d="m471.072 315.353c-1.713 0-3.102 1.389-3.102 3.102s1.389 3.103 3.102 3.103 3.102-1.389 3.102-3.103c0-1.713-1.389-3.102-3.102-3.102z"/><path d="m481.448 324.977c-1.713 0-3.102 1.389-3.102 3.102s1.389 3.102 3.102 3.102 3.102-1.389 3.102-3.102c0-.229-.028-.45-.075-.664-.211-.443-.44-.876-.657-1.315-.569-.682-1.413-1.123-2.37-1.123z"/><path d="m471.072 335.353c-1.713 0-3.102 1.389-3.102 3.102s1.389 3.103 3.102 3.103 3.102-1.389 3.102-3.103c0-1.713-1.389-3.102-3.102-3.102z"/><path d="m481.448 344.977c-1.713 0-3.102 1.389-3.102 3.102s1.389 3.102 3.102 3.102 3.102-1.389 3.102-3.102c.001-1.714-1.388-3.102-3.102-3.102z"/><path d="m471.072 355.353c-1.713 0-3.102 1.389-3.102 3.102s1.389 3.103 3.102 3.103 3.102-1.389 3.102-3.103c0-1.713-1.389-3.102-3.102-3.102z"/><path d="m481.448 364.977c-1.713 0-3.102 1.389-3.102 3.102s1.389 3.102 3.102 3.102 3.102-1.389 3.102-3.102c.001-1.714-1.388-3.102-3.102-3.102z"/><path d="m471.072 375.353c-1.713 0-3.102 1.389-3.102 3.102s1.389 3.103 3.102 3.103 3.102-1.389 3.102-3.103c0-1.713-1.389-3.102-3.102-3.102z"/><path d="m481.448 384.977c-1.713 0-3.102 1.389-3.102 3.102s1.389 3.102 3.102 3.102 3.102-1.389 3.102-3.102c.001-1.714-1.388-3.102-3.102-3.102z"/><path d="m471.072 395.353c-1.713 0-3.102 1.389-3.102 3.102s1.389 3.103 3.102 3.103 3.102-1.389 3.102-3.103c0-1.713-1.389-3.102-3.102-3.102z"/><path d="m481.448 404.977c-1.713 0-3.102 1.389-3.102 3.102s1.389 3.102 3.102 3.102 3.102-1.389 3.102-3.102c.001-1.714-1.388-3.102-3.102-3.102z"/><path d="m471.072 415.353c-1.713 0-3.102 1.389-3.102 3.102s1.389 3.103 3.102 3.103 3.102-1.389 3.102-3.103c0-1.713-1.389-3.102-3.102-3.102z"/><path d="m451.072 295.353c-1.713 0-3.102 1.389-3.102 3.102s1.389 3.103 3.102 3.103 3.102-1.389 3.102-3.103c0-1.713-1.389-3.102-3.102-3.102z"/><path d="m461.448 304.977c-1.713 0-3.102 1.389-3.102 3.102s1.389 3.102 3.102 3.102 3.102-1.389 3.102-3.102c.001-1.714-1.388-3.102-3.102-3.102z"/><path d="m451.072 315.353c-1.713 0-3.102 1.389-3.102 3.102s1.389 3.103 3.102 3.103 3.102-1.389 3.102-3.103c0-1.713-1.389-3.102-3.102-3.102z"/><path d="m461.448 324.977c-1.713 0-3.102 1.389-3.102 3.102s1.389 3.102 3.102 3.102 3.102-1.389 3.102-3.102c.001-1.714-1.388-3.102-3.102-3.102z"/><path d="m451.072 335.353c-1.713 0-3.102 1.389-3.102 3.102s1.389 3.103 3.102 3.103 3.102-1.389 3.102-3.103c0-1.713-1.389-3.102-3.102-3.102z"/><path d="m461.448 344.977c-1.713 0-3.102 1.389-3.102 3.102s1.389 3.102 3.102 3.102 3.102-1.389 3.102-3.102c.001-1.714-1.388-3.102-3.102-3.102z"/><path d="m451.072 355.353c-1.713 0-3.102 1.389-3.102 3.102s1.389 3.103 3.102 3.103 3.102-1.389 3.102-3.103c0-1.713-1.389-3.102-3.102-3.102z"/><path d="m461.448 364.977c-1.713 0-3.102 1.389-3.102 3.102s1.389 3.102 3.102 3.102 3.102-1.389 3.102-3.102c.001-1.714-1.388-3.102-3.102-3.102z"/><path d="m451.072 375.353c-1.713 0-3.102 1.389-3.102 3.102s1.389 3.103 3.102 3.103 3.102-1.389 3.102-3.103c0-1.713-1.389-3.102-3.102-3.102z"/><path d="m461.448 384.977c-1.713 0-3.102 1.389-3.102 3.102s1.389 3.102 3.102 3.102 3.102-1.389 3.102-3.102c.001-1.714-1.388-3.102-3.102-3.102z"/><path d="m451.072 395.353c-1.713 0-3.102 1.389-3.102 3.102s1.389 3.103 3.102 3.103 3.102-1.389 3.102-3.103c0-1.713-1.389-3.102-3.102-3.102z"/><path d="m461.448 404.977c-1.713 0-3.102 1.389-3.102 3.102s1.389 3.102 3.102 3.102 3.102-1.389 3.102-3.102c.001-1.714-1.388-3.102-3.102-3.102z"/><path d="m451.072 415.353c-1.713 0-3.102 1.389-3.102 3.102s1.389 3.103 3.102 3.103 3.102-1.389 3.102-3.103c0-1.713-1.389-3.102-3.102-3.102z"/><path d="m441.448 284.977c-1.713 0-3.102 1.389-3.102 3.102s1.389 3.102 3.102 3.102 3.102-1.389 3.102-3.102c.001-1.714-1.388-3.102-3.102-3.102z"/><path d="m441.448 304.977c-1.713 0-3.102 1.389-3.102 3.102s1.389 3.102 3.102 3.102 3.102-1.389 3.102-3.102c.001-1.714-1.388-3.102-3.102-3.102z"/><path d="m441.448 324.977c-1.713 0-3.102 1.389-3.102 3.102s1.389 3.102 3.102 3.102 3.102-1.389 3.102-3.102c.001-1.714-1.388-3.102-3.102-3.102z"/><path d="m441.448 344.977c-1.713 0-3.102 1.389-3.102 3.102s1.389 3.102 3.102 3.102 3.102-1.389 3.102-3.102c.001-1.714-1.388-3.102-3.102-3.102z"/><path d="m441.448 364.977c-1.713 0-3.102 1.389-3.102 3.102s1.389 3.102 3.102 3.102 3.102-1.389 3.102-3.102c.001-1.714-1.388-3.102-3.102-3.102z"/><path d="m431.072 375.353c-1.713 0-3.102 1.389-3.102 3.102s1.389 3.103 3.102 3.103 3.102-1.389 3.102-3.103c0-1.713-1.389-3.102-3.102-3.102z"/><path d="m441.448 384.977c-1.713 0-3.102 1.389-3.102 3.102s1.389 3.102 3.102 3.102 3.102-1.389 3.102-3.102c.001-1.714-1.388-3.102-3.102-3.102z"/><path d="m431.072 395.353c-1.713 0-3.102 1.389-3.102 3.102s1.389 3.103 3.102 3.103 3.102-1.389 3.102-3.103c0-1.713-1.389-3.102-3.102-3.102z"/><path d="m441.448 404.977c-1.713 0-3.102 1.389-3.102 3.102s1.389 3.102 3.102 3.102 3.102-1.389 3.102-3.102c.001-1.714-1.388-3.102-3.102-3.102z"/><path d="m431.072 415.353c-1.713 0-3.102 1.389-3.102 3.102s1.389 3.103 3.102 3.103 3.102-1.389 3.102-3.103c0-1.713-1.389-3.102-3.102-3.102z"/><path d="m421.448 384.977c-1.713 0-3.102 1.389-3.102 3.102s1.389 3.102 3.102 3.102 3.102-1.389 3.102-3.102c.001-1.714-1.388-3.102-3.102-3.102z"/><path d="m411.072 395.353c-1.713 0-3.102 1.389-3.102 3.102s1.389 3.103 3.102 3.103 3.102-1.389 3.102-3.103c0-1.713-1.389-3.102-3.102-3.102z"/><path d="m421.448 404.977c-1.713 0-3.102 1.389-3.102 3.102s1.389 3.102 3.102 3.102 3.102-1.389 3.102-3.102c.001-1.714-1.388-3.102-3.102-3.102z"/><path d="m411.072 415.353c-1.713 0-3.102 1.389-3.102 3.102s1.389 3.103 3.102 3.103 3.102-1.389 3.102-3.103c0-1.713-1.389-3.102-3.102-3.102z"/><path d="m401.448 384.977c-1.713 0-3.102 1.389-3.102 3.102s1.389 3.102 3.102 3.102 3.102-1.389 3.102-3.102c.001-1.714-1.388-3.102-3.102-3.102z"/><path d="m391.072 395.353c-1.713 0-3.102 1.389-3.102 3.102s1.389 3.103 3.102 3.103 3.102-1.389 3.102-3.103c0-1.713-1.389-3.102-3.102-3.102z"/><path d="m401.448 404.977c-1.713 0-3.102 1.389-3.102 3.102s1.389 3.102 3.102 3.102 3.102-1.389 3.102-3.102c.001-1.714-1.388-3.102-3.102-3.102z"/><path d="m391.072 415.353c-1.713 0-3.102 1.389-3.102 3.102s1.389 3.103 3.102 3.103 3.102-1.389 3.102-3.103c0-1.713-1.389-3.102-3.102-3.102z"/><path d="m381.448 384.977c-1.713 0-3.102 1.389-3.102 3.102s1.389 3.102 3.102 3.102 3.102-1.389 3.102-3.102c.001-1.714-1.388-3.102-3.102-3.102z"/><path d="m371.072 395.353c-1.713 0-3.102 1.389-3.102 3.102s1.389 3.103 3.102 3.103 3.102-1.389 3.102-3.103c0-1.713-1.389-3.102-3.102-3.102z"/><path d="m381.448 404.977c-1.713 0-3.102 1.389-3.102 3.102s1.389 3.102 3.102 3.102 3.102-1.389 3.102-3.102c.001-1.714-1.388-3.102-3.102-3.102z"/><path d="m371.072 415.353c-1.713 0-3.102 1.389-3.102 3.102s1.389 3.103 3.102 3.103 3.102-1.389 3.102-3.103c0-1.713-1.389-3.102-3.102-3.102z"/><path d="m361.448 384.977c-1.713 0-3.102 1.389-3.102 3.102s1.389 3.102 3.102 3.102 3.102-1.389 3.102-3.102c.001-1.714-1.388-3.102-3.102-3.102z"/><path d="m351.072 395.353c-1.713 0-3.102 1.389-3.102 3.102s1.389 3.103 3.102 3.103 3.102-1.389 3.102-3.103c0-1.713-1.389-3.102-3.102-3.102z"/><path d="m361.448 404.977c-1.713 0-3.102 1.389-3.102 3.102s1.389 3.102 3.102 3.102 3.102-1.389 3.102-3.102c.001-1.714-1.388-3.102-3.102-3.102z"/><path d="m351.072 421.558c1.713 0 3.102-1.389 3.102-3.103 0-1.713-1.389-3.102-3.102-3.102s-3.102 1.389-3.102 3.102c-.001 1.713 1.388 3.103 3.102 3.103z"/><path d="m341.448 391.181c1.713 0 3.102-1.389 3.102-3.102s-1.389-3.102-3.102-3.102-3.102 1.389-3.102 3.102 1.389 3.102 3.102 3.102z"/><path d="m331.072 401.558c1.713 0 3.102-1.389 3.102-3.103 0-1.713-1.389-3.102-3.102-3.102s-3.102 1.389-3.102 3.102c-.001 1.713 1.388 3.103 3.102 3.103z"/><path d="m341.448 411.181c1.713 0 3.102-1.389 3.102-3.102s-1.389-3.102-3.102-3.102-3.102 1.389-3.102 3.102 1.389 3.102 3.102 3.102z"/><path d="m331.072 421.558c1.713 0 3.102-1.389 3.102-3.103 0-1.713-1.389-3.102-3.102-3.102s-3.102 1.389-3.102 3.102c-.001 1.713 1.388 3.103 3.102 3.103z"/><path d="m321.448 391.181c1.713 0 3.102-1.389 3.102-3.102s-1.389-3.102-3.102-3.102-3.102 1.389-3.102 3.102 1.389 3.102 3.102 3.102z"/><path d="m311.072 401.558c1.713 0 3.102-1.389 3.102-3.103 0-1.713-1.389-3.102-3.102-3.102s-3.102 1.389-3.102 3.102c-.001 1.713 1.388 3.103 3.102 3.103z"/><path d="m321.448 411.181c1.713 0 3.102-1.389 3.102-3.102s-1.389-3.102-3.102-3.102-3.102 1.389-3.102 3.102 1.389 3.102 3.102 3.102z"/><path d="m311.072 421.558c1.713 0 3.102-1.389 3.102-3.103 0-1.713-1.389-3.102-3.102-3.102s-3.102 1.389-3.102 3.102c-.001 1.713 1.388 3.103 3.102 3.103z"/><path d="m301.448 391.181c1.713 0 3.102-1.389 3.102-3.102s-1.389-3.102-3.102-3.102-3.102 1.389-3.102 3.102 1.389 3.102 3.102 3.102z"/><path d="m291.072 395.353c-1.713 0-3.102 1.389-3.102 3.102s1.389 3.103 3.102 3.103 3.102-1.389 3.102-3.103c0-1.713-1.389-3.102-3.102-3.102z"/><path d="m301.448 411.181c1.713 0 3.102-1.389 3.102-3.102s-1.389-3.102-3.102-3.102-3.102 1.389-3.102 3.102 1.389 3.102 3.102 3.102z"/><path d="m291.072 415.353c-1.713 0-3.102 1.389-3.102 3.102s1.389 3.103 3.102 3.103 3.102-1.389 3.102-3.103c0-1.713-1.389-3.102-3.102-3.102z"/><path d="m281.448 384.977c-1.713 0-3.102 1.389-3.102 3.102s1.389 3.102 3.102 3.102 3.102-1.389 3.102-3.102c.001-1.714-1.388-3.102-3.102-3.102z"/><path d="m271.072 395.353c-1.713 0-3.102 1.389-3.102 3.102s1.389 3.103 3.102 3.103 3.102-1.389 3.102-3.103c0-1.713-1.389-3.102-3.102-3.102z"/><path d="m281.448 404.977c-1.713 0-3.102 1.389-3.102 3.102s1.389 3.102 3.102 3.102 3.102-1.389 3.102-3.102c.001-1.714-1.388-3.102-3.102-3.102z"/><path d="m271.072 415.353c-1.713 0-3.102 1.389-3.102 3.102s1.389 3.103 3.102 3.103 3.102-1.389 3.102-3.103c0-1.713-1.389-3.102-3.102-3.102z"/><path d="m261.448 384.977c-1.713 0-3.102 1.389-3.102 3.102s1.389 3.102 3.102 3.102 3.102-1.389 3.102-3.102c.001-1.714-1.388-3.102-3.102-3.102z"/><path d="m251.072 395.353c-1.713 0-3.102 1.389-3.102 3.102s1.389 3.103 3.102 3.103 3.102-1.389 3.102-3.103c0-1.713-1.389-3.102-3.102-3.102z"/><path d="m261.448 404.977c-1.713 0-3.102 1.389-3.102 3.102s1.389 3.102 3.102 3.102 3.102-1.389 3.102-3.102c.001-1.714-1.388-3.102-3.102-3.102z"/><path d="m251.072 415.353c-1.713 0-3.102 1.389-3.102 3.102s1.389 3.103 3.102 3.103 3.102-1.389 3.102-3.103c0-1.713-1.389-3.102-3.102-3.102z"/><path d="m241.448 384.977c-1.713 0-3.102 1.389-3.102 3.102s1.389 3.102 3.102 3.102 3.102-1.389 3.102-3.102c.001-1.714-1.388-3.102-3.102-3.102z"/><path d="m231.072 395.353c-1.713 0-3.102 1.389-3.102 3.102s1.389 3.103 3.102 3.103 3.102-1.389 3.102-3.103c0-1.713-1.389-3.102-3.102-3.102z"/><path d="m241.448 404.977c-1.713 0-3.102 1.389-3.102 3.102s1.389 3.102 3.102 3.102 3.102-1.389 3.102-3.102c.001-1.714-1.388-3.102-3.102-3.102z"/><path d="m231.072 415.353c-1.713 0-3.102 1.389-3.102 3.102s1.389 3.103 3.102 3.103 3.102-1.389 3.102-3.103c0-1.713-1.389-3.102-3.102-3.102z"/><path d="m221.448 384.977c-1.713 0-3.102 1.389-3.102 3.102s1.389 3.102 3.102 3.102 3.102-1.389 3.102-3.102c.001-1.714-1.388-3.102-3.102-3.102z"/><path d="m211.072 395.353c-1.713 0-3.102 1.389-3.102 3.102s1.389 3.103 3.102 3.103 3.102-1.389 3.102-3.103c0-1.713-1.389-3.102-3.102-3.102z"/><path d="m221.448 404.977c-1.713 0-3.102 1.389-3.102 3.102s1.389 3.102 3.102 3.102 3.102-1.389 3.102-3.102c.001-1.714-1.388-3.102-3.102-3.102z"/><path d="m211.072 415.353c-1.713 0-3.102 1.389-3.102 3.102s1.389 3.103 3.102 3.103 3.102-1.389 3.102-3.103c0-1.713-1.389-3.102-3.102-3.102z"/><path d="m201.448 384.977c-1.713 0-3.102 1.389-3.102 3.102s1.389 3.102 3.102 3.102 3.102-1.389 3.102-3.102c.001-1.714-1.388-3.102-3.102-3.102z"/><path d="m191.072 395.353c-1.713 0-3.102 1.389-3.102 3.102s1.389 3.103 3.102 3.103 3.102-1.389 3.102-3.103c0-1.713-1.389-3.102-3.102-3.102z"/><path d="m201.448 404.977c-1.713 0-3.102 1.389-3.102 3.102s1.389 3.102 3.102 3.102 3.102-1.389 3.102-3.102c.001-1.714-1.388-3.102-3.102-3.102z"/><path d="m191.072 415.353c-1.713 0-3.102 1.389-3.102 3.102s1.389 3.103 3.102 3.103 3.102-1.389 3.102-3.103c0-1.713-1.389-3.102-3.102-3.102z"/><path d="m181.448 384.977c-1.713 0-3.102 1.389-3.102 3.102s1.389 3.102 3.102 3.102 3.102-1.389 3.102-3.102c.001-1.714-1.388-3.102-3.102-3.102z"/><path d="m171.072 395.353c-1.713 0-3.102 1.389-3.102 3.102s1.389 3.103 3.102 3.103 3.102-1.389 3.102-3.103c0-1.713-1.389-3.102-3.102-3.102z"/><path d="m181.448 404.977c-1.713 0-3.102 1.389-3.102 3.102s1.389 3.102 3.102 3.102 3.102-1.389 3.102-3.102c.001-1.714-1.388-3.102-3.102-3.102z"/><path d="m171.072 415.353c-1.713 0-3.102 1.389-3.102 3.102s1.389 3.103 3.102 3.103 3.102-1.389 3.102-3.103c0-1.713-1.389-3.102-3.102-3.102z"/><path d="m161.448 384.977c-1.713 0-3.102 1.389-3.102 3.102s1.389 3.102 3.102 3.102 3.102-1.389 3.102-3.102c.001-1.714-1.388-3.102-3.102-3.102z"/><path d="m151.072 395.353c-1.713 0-3.102 1.389-3.102 3.102s1.389 3.103 3.102 3.103 3.102-1.389 3.102-3.103c0-1.713-1.389-3.102-3.102-3.102z"/><path d="m161.448 404.977c-1.713 0-3.102 1.389-3.102 3.102s1.389 3.102 3.102 3.102 3.102-1.389 3.102-3.102c.001-1.714-1.388-3.102-3.102-3.102z"/><path d="m151.072 415.353c-1.713 0-3.102 1.389-3.102 3.102s1.389 3.103 3.102 3.103 3.102-1.389 3.102-3.103c0-1.713-1.389-3.102-3.102-3.102z"/><path d="m141.448 384.977c-1.713 0-3.102 1.389-3.102 3.102s1.389 3.102 3.102 3.102 3.102-1.389 3.102-3.102c.001-1.714-1.388-3.102-3.102-3.102z"/><path d="m131.072 395.353c-1.713 0-3.102 1.389-3.102 3.102s1.389 3.103 3.102 3.103 3.102-1.389 3.102-3.103c0-1.713-1.389-3.102-3.102-3.102z"/><path d="m141.448 404.977c-1.713 0-3.102 1.389-3.102 3.102s1.389 3.102 3.102 3.102 3.102-1.389 3.102-3.102c.001-1.714-1.388-3.102-3.102-3.102z"/><path d="m131.072 421.558c1.713 0 3.102-1.389 3.102-3.103 0-1.713-1.389-3.102-3.102-3.102s-3.102 1.389-3.102 3.102c-.001 1.713 1.388 3.103 3.102 3.103z"/><path d="m121.448 391.181c1.713 0 3.102-1.389 3.102-3.102s-1.389-3.102-3.102-3.102-3.102 1.389-3.102 3.102 1.389 3.102 3.102 3.102z"/><path d="m111.072 395.353c-1.713 0-3.102 1.389-3.102 3.102s1.389 3.103 3.102 3.103 3.102-1.389 3.102-3.103c0-1.713-1.389-3.102-3.102-3.102z"/><path d="m121.448 411.181c1.713 0 3.102-1.389 3.102-3.102s-1.389-3.102-3.102-3.102-3.102 1.389-3.102 3.102 1.389 3.102 3.102 3.102z"/><path d="m114.174 418.455c0-1.713-1.389-3.102-3.102-3.102s-3.102 1.389-3.102 3.102 1.389 3.103 3.102 3.103 3.102-1.39 3.102-3.103z"/></g><path d="m356.551 166.675h-86.189c-8.018 0-14.518-6.5-14.518-14.518v-20.56c0-8.018 6.5-14.518 14.518-14.518h86.189c8.018 0 14.518 6.5 14.518 14.518v20.56c0 8.018-6.5 14.518-14.518 14.518z" fill="#e9c278"/><path d="m356.551 238.745h-86.189c-8.018 0-14.518-6.5-14.518-14.518v-20.56c0-8.018 6.5-14.518 14.518-14.518h86.189c8.018 0 14.518 6.5 14.518 14.518v20.56c0 8.018-6.5 14.518-14.518 14.518z" fill="#e9c278"/><path d="m172.623 239.238h-132.788c-19.791 0-35.835 16.044-35.835 35.835v1.238c0 19.791 16.044 35.835 35.835 35.835h51.035c-19.791 0-35.835 16.044-35.835 35.835v1.238c0 19.791 16.044 35.835 35.835 35.835h81.753c40.266 0 72.907-32.642 72.907-72.907 0-40.267-32.642-72.909-72.907-72.909z" fill="#f9fbfc"/><path d="m495.124 426.508c2.671-5.074 4.191-10.844 4.191-16.965v-34.098c0-63.737-51.854-115.592-115.592-115.592h-24.673v-17.297c9.03-1.227 16.019-8.968 16.019-18.329v-20.561c0-9.361-6.989-17.102-16.019-18.329v-14.851c9.03-1.227 16.019-8.969 16.019-18.33v-20.561c0-9.361-6.989-17.102-16.019-18.329v-30.565c9.482-5.366 15.9-15.54 15.9-27.191 0-17.22-14.01-31.23-31.229-31.23h-228.188c-17.22 0-31.229 14.01-31.229 31.23 0 11.872 6.66 22.216 16.439 27.497v152.232h-60.908c-21.965-.001-39.835 17.868-39.835 39.833v1.238c0 21.965 17.87 39.835 39.835 39.835h27.115c-9.658 7.275-15.915 18.839-15.915 31.835v1.237c0 21.965 17.87 39.835 39.835 39.835h9.873v20.49c0 6.121 1.52 11.891 4.191 16.965-9.309 5.67-15.539 15.917-15.539 27.592 0 17.801 14.482 32.283 32.283 32.283h356.702c17.801 0 32.283-14.483 32.283-32.283 0-11.674-6.229-21.921-15.539-27.591zm-128.055-222.841v20.561c0 5.8-4.719 10.518-10.519 10.518h-86.189c-5.8 0-10.519-4.718-10.519-10.518v-20.561c0-5.8 4.719-10.518 10.519-10.518h86.189c5.8-.001 10.519 4.718 10.519 10.518zm0-72.07v20.561c0 5.8-4.719 10.519-10.519 10.519h-86.189c-5.8 0-10.519-4.719-10.519-10.519v-20.561c0-5.8 4.719-10.518 10.519-10.518h86.189c5.8 0 10.519 4.718 10.519 10.518zm-276.199 249.456c-17.554 0-31.835-14.281-31.835-31.835v-1.237c0-17.078 13.518-31.053 30.415-31.799.387.124.792.21 1.221.21h75.878c2.209 0 4-1.791 4-4s-1.791-4-4-4h-74.342c-.42-.15-.866-.246-1.337-.246h-51.035c-17.554 0-31.835-14.282-31.835-31.836v-1.238c0-17.554 14.281-31.834 31.835-31.834h132.788c37.995 0 68.907 30.912 68.907 68.907s-30.912 68.907-68.907 68.907h-81.753zm400.445 28.49c0 4.955-1.271 9.618-3.501 13.683-2.986-.914-6.153-1.41-9.435-1.41h-356.7c-3.282 0-6.449.496-9.435 1.41-2.23-4.065-3.501-8.728-3.501-13.683v-20.49h63.88c42.407 0 76.907-34.5 76.907-76.907s-34.5-76.907-76.907-76.907h-63.88v-149.253c2.188.487 4.458.752 6.79.752h228.188c2.525 0 4.978-.309 7.33-.877v27.218h-80.689c-10.211 0-18.519 8.307-18.519 18.518v20.561c0 10.211 8.308 18.519 18.519 18.519h80.689v14.473h-80.689c-10.211 0-18.519 8.308-18.519 18.518v20.561c0 10.211 8.308 18.518 18.519 18.518h80.689v21.108c0 2.209 1.791 4 4 4h28.673c59.326 0 107.592 48.266 107.592 107.592v34.096z" fill="#31373d"/></g></svg>