<svg id="Capa_1" enable-background="new 0 0 512 512" height="512" viewBox="0 0 512 512" width="512" xmlns="http://www.w3.org/2000/svg"><g><rect fill="#12b0ff" height="0" width="93.57" x="361.177" y="512"/><g><g><path d="m359.039 6.011s.007.496 0 0c-12.641-3.904-26.064-6.011-39.97-6.011h-63.067l-10 56.472 10 64.963c57.125-.594 115.358-58.054 103.037-115.424z" fill="#429bdb"/><path d="m192.932 0c-14.565 0-28.598 2.316-41.76 6.584 0 .032 0 .055-.001.075v.008.034c0 .02 0 .024 0 0 0-.009 0-.021 0-.034 0-.002 0-.006 0-.008 0-.036.001-.075.001-.075-10.212 59.533 46.528 114.865 103.937 114.865.297 0 .595-.011.892-.014v-121.435z" fill="#12b0ff"/></g><path d="m151.171 6.701c0 .024 0 .02 0 0z" fill="#12b0ff"/><path d="m151.171 6.659v.008c0-.003 0-.005 0-.008z" fill="#12b0ff"/><g><g><path d="m256.002 207.838-10 146.449 10 119.38h125.762v-265.829z" fill="#28485e"/><path d="m126.236 207.838h129.765v265.828h-129.765z" fill="#36607d"/></g><path d="m422.702 48.201c-17.589 71.079-85.546 104.05-166.7 104.05l-10 71.749 10 90.19c6.552 7.433 13.527 14.559 20.924 21.339 39.478 36.189 66.495 85.137 76.076 137.828l8.175 38.643h93.57v-376.321c.001-33.303-12.061-63.842-32.045-87.478z" fill="#429bdb"/><path d="m256 152.251c-81.15 0-149.106-32.966-166.699-104.04-19.983 23.634-32.049 54.166-32.049 87.468v376.321h101.415v-119.783c0-36.198 6.816-71.594 20.261-105.204 9.846-24.615 16.477-50.092 19.834-76.124 11.417 38.322 30.837 73.347 57.24 103.301v-161.939z" fill="#12b0ff"/></g><path d="m359.039 6.011c.007.496 0 0 0 0z" fill="#28485e"/><path d="m422.702 48.201c-16.564-19.591-38.57-34.439-63.662-42.19.007.496.019.991.019 1.489 0 57.111-46.059 103.457-103.057 103.938l-10 27.257 10 33.557c81.153-.001 149.111-52.972 166.7-124.051z" fill="#efe2dd"/><path d="m255.109 111.449c-57.409 0-103.949-46.54-103.949-103.949 0-.306.009-.61.012-.916-24.349 7.896-45.701 22.504-61.87 41.627 17.593 71.074 85.548 124.04 166.699 124.04h.001v-60.814c-.298.003-.594.012-.893.012z" fill="#f7f0eb"/><ellipse cx="177.629" cy="111.449" fill="#fdcb02" rx="49.475" ry="49.475" transform="matrix(.145 -.989 .989 .145 41.567 271.011)"/><ellipse cx="177.629" cy="111.449" fill="#fdae02" rx="27.246" ry="27.245" transform="matrix(.071 -.998 .998 .071 53.868 280.73)"/></g></g></svg>