<?xml version="1.0" encoding="iso-8859-1"?>
<!-- Generator: Adobe Illustrator 19.0.0, SVG Export Plug-In . SVG Version: 6.00 Build 0)  -->
<svg version="1.1" id="Layer_1" xmlns="http://www.w3.org/2000/svg" xmlns:xlink="http://www.w3.org/1999/xlink" x="0px" y="0px"
	 viewBox="0 0 511.999 511.999" style="enable-background:new 0 0 511.999 511.999;" xml:space="preserve">
<polygon style="fill:#E6E6E6;" points="453.112,35.616 416.318,10.511 94.27,10.511 57.475,35.616 57.475,189.978 94.27,215.083 
	416.318,215.083 453.112,189.978 "/>
<polygon style="fill:#999999;" points="94.27,10.511 57.475,35.616 57.475,189.978 94.27,215.083 "/>
<polyline style="fill:#D88948;" points="295.938,215.083 295.938,455.564 214.65,455.564 214.65,215.083 "/>
<polyline style="fill:#C4783F;" points="245.12,215.083 245.12,455.564 214.65,455.564 214.65,215.083 "/>
<rect x="94.272" y="10.508" style="fill:#CCCCCC;" width="322.046" height="204.575"/>
<g>
	<polygon style="fill:#E6E6E6;" points="313.905,10.508 109.331,215.083 94.275,215.083 94.275,193.423 277.176,10.508 	"/>
	<polygon style="fill:#E6E6E6;" points="416.321,10.508 416.321,42.556 243.794,215.083 149.663,215.083 354.238,10.508 	"/>
</g>
<rect x="203.292" y="455.561" style="fill:#EFBB6A;" width="104.019" height="47.707"/>
<rect x="203.292" y="455.561" style="fill:#D89F55;" width="32.215" height="47.707"/>
<path d="M459.239,26.779L422.447,1.674C420.849,0.584,418.959,0,417.025,0h-37.908c-5.313,0-9.618,4.306-9.618,9.618
	s4.305,9.618,9.618,9.618h28.289v127.63c0,5.312,4.305,9.618,9.618,9.618c5.313,0,9.618-4.306,9.618-9.618V27.825l17.555,11.979
	v144.2l-17.555,11.979v-14.493c0-5.312-4.305-9.618-9.618-9.618c-5.313,0-9.618,4.306-9.618,9.618v23.083H104.593V46.199
	c0-5.312-4.305-9.618-9.618-9.618c-5.313,0-9.618,4.306-9.618,9.618v149.785L67.8,184.004v-144.2l30.144-20.568h248.537
	c5.313,0,9.618-4.306,9.618-9.618S351.794,0,346.481,0H94.975c-1.934,0-3.823,0.584-5.422,1.674L52.76,26.779
	c-2.626,1.792-4.196,4.766-4.196,7.945v154.362c0,3.179,1.571,6.153,4.196,7.945l36.793,25.105c1.598,1.09,3.488,1.674,5.422,1.674
	h192.052v221.244h-62.053V244.325c0-5.312-4.305-9.618-9.618-9.618s-9.618,4.306-9.618,9.618v200.727h-1.743
	c-5.313,0-9.618,4.306-9.618,9.618v47.709c0,5.312,4.305,9.618,9.618,9.618h104.012c5.313,0,9.618-4.306,9.618-9.618v-47.709
	c0-5.312-4.305-9.618-9.618-9.618h-1.743V223.809h110.762c1.934,0,3.823-0.584,5.422-1.674l36.792-25.105
	c2.626-1.792,4.196-4.766,4.196-7.945V34.723C463.437,31.544,461.866,28.57,459.239,26.779z M298.388,492.763h-84.776v-28.473
	h84.776V492.763z"/>
<path d="M256.001,70.225c4.789,0,9.481,0.803,13.945,2.387c5.001,1.776,10.503-0.841,12.281-5.848
	c1.776-5.007-0.841-10.504-5.849-12.281c-6.535-2.319-13.39-3.495-20.378-3.495c-33.588,0-60.916,27.326-60.916,60.916
	s27.328,60.916,60.916,60.916s60.916-27.326,60.916-60.916c0-8.22-1.612-16.198-4.791-23.715c-2.07-4.894-7.715-7.179-12.605-5.112
	c-4.891,2.07-7.182,7.714-5.111,12.605c2.17,5.131,3.271,10.589,3.271,16.22c0,22.983-18.697,41.679-41.679,41.679
	s-41.679-18.697-41.679-41.679S233.018,70.225,256.001,70.225z"/>
<g>
</g>
<g>
</g>
<g>
</g>
<g>
</g>
<g>
</g>
<g>
</g>
<g>
</g>
<g>
</g>
<g>
</g>
<g>
</g>
<g>
</g>
<g>
</g>
<g>
</g>
<g>
</g>
<g>
</g>
</svg>
